#!OML:ASF X:\für Bonn\!DataBase\2005_08_12_Daniel\c3d\Daniel.ASF
:FULLY-SPECIFIED
:DEGREES
2296
root -8.70338 17.2661 23.4576 15.4624 119.674 -346.316
lowerback 14.5358 1.47735 5.08361
upperback 2.45178 2.94667 0.590267
thorax -5.32199 1.43568 -2.80412
lowerneck -3.40903 9.76825 3.53906
upperneck 1.4973 13.35 -10.2837
head 2.12163 6.57591 -3.48829
rclavicle 4.23411e-014 -1.70955e-014
rhumerus -50.0121 18.8689 -101.358
rradius 104.998
rwrist -6.33489
rhand -20.1852 29.4127
rfingers 7.12502
rthumb 6.16102 -0.477673
lclavicle 4.23411e-014 -1.70955e-014
lhumerus -73.0329 -4.46901 100.1
lradius 92.0568
lwrist 17.8956
lhand -16.9397 -8.22393
lfingers 7.12502
lthumb 9.29357 21.5512
rfemur 6.79887 7.70019 21.2105
rtibia 33.0705
rfoot -4.04051 -10.936
rtoes -18.3109
lfemur -37.0963 7.56724 -25.8719
ltibia 72.7429
lfoot -14.9907 -4.93018
ltoes -14.1038
2297
root -8.48437 17.3595 23.2554 14.9514 120.326 -346.719
lowerback 14.4352 1.58807 4.962
upperback 2.34774 3.05802 0.48194
thorax -5.36816 1.48546 -2.86812
lowerneck -3.48356 9.64932 3.70261
upperneck 1.59774 13.1879 -10.245
head 2.16592 6.4915 -3.50729
rclavicle 2.3556e-014 1.55052e-014
rhumerus -50.5097 19.494 -101.92
rradius 105.869
rwrist -5.94217
rhand -20.2764 30.2536
rfingers 7.12502
rthumb 6.07295 0.360684
lclavicle 2.3556e-014 1.55052e-014
lhumerus -73.2694 -3.78981 99.3529
lradius 92.7062
lwrist 17.7731
lhand -17.1077 -8.54599
lfingers 7.12502
lthumb 9.13144 21.2363
rfemur 7.39331 7.08248 21.0833
rtibia 33.1371
rfoot -0.11205 -11.567
rtoes -16.4652
lfemur -36.9277 7.35232 -26.3613
ltibia 69.9545
lfoot -15.3036 -5.12332
ltoes -13.9739
2298
root -8.2649 17.4444 23.0539 14.4245 121.004 -347.112
lowerback 14.3387 1.66784 4.81277
upperback 2.25753 3.12635 0.390687
thorax -5.40781 1.51575 -2.89059
lowerneck -3.57182 9.57119 3.79246
upperneck 1.73632 13.0855 -10.178
head 2.2215 6.43556 -3.49914
rclavicle -4.46272e-014 -1.35174e-014
rhumerus -51.1163 20.0709 -102.457
rradius 106.6
rwrist -5.42339
rhand -20.2846 31.0196
rfingers 7.12502
rthumb 6.06505 1.1264
lclavicle -4.46272e-014 -1.35174e-014
lhumerus -73.4002 -3.11964 98.666
lradius 93.3774
lwrist 17.6615
lhand -17.3888 -8.70604
lfingers 7.12502
lthumb 8.86019 21.088
rfemur 7.88619 6.43572 20.9658
rtibia 33.4992
rfoot 3.45548 -11.8494
rtoes -15.2219
lfemur -36.6107 7.22399 -26.8612
ltibia 67.1178
lfoot -15.675 -5.24636
ltoes -13.6033
2299
root -8.04584 17.5181 22.8555 13.9924 121.707 -347.405
lowerback 14.2433 1.73158 4.69816
upperback 2.17268 3.18043 0.313111
thorax -5.44252 1.53915 -2.91537
lowerneck -3.6209 9.46868 3.78081
upperneck 1.783 12.9448 -10.0668
head 2.22441 6.36419 -3.46424
rclavicle -1.77912e-014 -5.96354e-015
rhumerus -51.7438 20.5387 -102.93
rradius 107.204
rwrist -4.83593
rhand -20.2985 31.6648
rfingers 7.12502
rthumb 6.05159 1.77122
lclavicle -1.77912e-014 -5.96354e-015
lhumerus -73.5183 -2.46419 98.0125
lradius 94.2096
lwrist 17.5686
lhand -17.4728 -8.62682
lfingers 7.12502
lthumb 8.77915 21.1706
rfemur 8.18299 5.91384 20.9695
rtibia 34.2426
rfoot 6.26651 -11.9145
rtoes -15.1601
lfemur -36.1968 7.14328 -27.3139
ltibia 64.2733
lfoot -16.1998 -5.23151
ltoes -13.4199
2300
root -7.82493 17.5738 22.6604 13.609 122.476 -347.583
lowerback 14.1482 1.76476 4.66016
upperback 2.12203 3.20772 0.244092
thorax -5.43965 1.55078 -2.96842
lowerneck -3.61355 9.38577 3.73702
upperneck 1.75885 12.8253 -9.93754
head 2.19117 6.30656 -3.42045
rclavicle 1.04859e-013 1.19271e-015
rhumerus -52.45 20.7113 -103.41
rradius 107.689
rwrist -4.15361
rhand -20.2589 32.1633
rfingers 7.12502
rthumb 6.08985 2.27083
lclavicle 1.04859e-013 1.19271e-015
lhumerus -73.6393 -1.82407 97.4106
lradius 95.1421
lwrist 17.5066
lhand -17.456 -8.47513
lfingers 7.12502
lthumb 8.79528 21.3216
rfemur 8.41095 5.41219 21.1094
rtibia 35.3334
rfoot 8.44681 -11.5057
rtoes -15.3864
lfemur -35.6609 7.03944 -27.6944
ltibia 61.4848
lfoot -16.9608 -4.82998
ltoes -13.7434
2301
root -7.60534 17.6132 22.4685 13.2515 123.262 -347.757
lowerback 14.0553 1.76006 4.59868
upperback 2.04512 3.1816 0.184284
thorax -5.47196 1.53467 -2.99001
lowerneck -3.49334 9.31916 3.68976
upperneck 1.66033 12.7263 -9.84837
head 2.11786 6.26374 -3.39539
rclavicle 3.28989e-014 2.82274e-014
rhumerus -53.3222 20.7792 -103.923
rradius 108.054
rwrist -3.5324
rhand -20.2313 32.7561
rfingers 7.12502
rthumb 6.11649 2.86437
lclavicle 3.28989e-014 2.82274e-014
lhumerus -73.8072 -1.06335 96.8146
lradius 96.1897
lwrist 17.5125
lhand -17.3873 -8.28244
lfingers 7.12502
lthumb 8.86165 21.5115
rfemur 8.46895 4.84679 21.2214
rtibia 36.7703
rfoot 10.0922 -10.5776
rtoes -15.2409
lfemur -35.0931 7.09036 -28.132
ltibia 58.7685
lfoot -17.7701 -4.21198
ltoes -14.5792
2302
root -7.38425 17.641 22.2754 12.8765 124.072 -347.894
lowerback 13.9756 1.73262 4.54096
upperback 2.01078 3.12945 0.146279
thorax -5.46959 1.50878 -2.98562
lowerneck -3.42721 9.28154 3.57252
upperneck 1.60438 12.6713 -9.73167
head 2.06423 6.24019 -3.3428
rclavicle 6.65929e-015 3.57812e-015
rhumerus -54.2159 20.8647 -104.342
rradius 108.262
rwrist -3.00453
rhand -20.4378 33.1549
rfingers 7.12502
rthumb 5.91718 3.25755
lclavicle 6.65929e-015 3.57812e-015
lhumerus -74.0215 -0.285264 96.2643
lradius 97.3838
lwrist 17.4459
lhand -17.2093 -8.05782
lfingers 7.12502
lthumb 9.03338 21.7288
rfemur 8.49585 4.16906 21.3111
rtibia 38.4254
rfoot 11.3464 -9.0589
rtoes -15.0293
lfemur -34.4595 7.28358 -28.5817
ltibia 56.1866
lfoot -18.6132 -3.43918
ltoes -15.5784
2303
root -7.16362 17.6548 22.0814 12.5651 124.88 -347.971
lowerback 13.8686 1.68459 4.49816
upperback 1.99812 3.05269 0.129885
thorax -5.43154 1.47257 -2.96068
lowerneck -3.33728 9.24438 3.35245
upperneck 1.45454 12.6139 -9.5999
head 1.96625 6.21831 -3.2704
rclavicle -1.91827e-014 -3.49861e-014
rhumerus -54.9878 20.9483 -104.67
rradius 108.141
rwrist -2.523
rhand -20.7273 33.5532
rfingers 7.12502
rthumb 5.63762 3.64817
lclavicle -1.91827e-014 -3.49861e-014
lhumerus -74.1263 0.525744 95.7715
lradius 98.5492
lwrist 17.3917
lhand -17.0226 -7.9726
lfingers 7.12502
lthumb 9.21351 21.8061
rfemur 8.42183 3.41082 21.3582
rtibia 40.2725
rfoot 11.8338 -7.29491
rtoes -16.1234
lfemur -33.8687 7.41007 -28.9948
ltibia 53.7794
lfoot -19.3897 -2.51927
ltoes -16.7964
2304
root -6.94476 17.6562 21.886 12.2199 125.704 -348.07
lowerback 13.8124 1.61969 4.4576
upperback 1.96609 2.95452 0.0821784
thorax -5.44185 1.42344 -2.9694
lowerneck -3.25375 9.22149 3.27019
upperneck 1.33818 12.5739 -9.51542
head 1.89673 6.20391 -3.23625
rclavicle 2.67365e-014 -1.51076e-014
rhumerus -55.6553 20.9323 -105.028
rradius 107.778
rwrist -2.21502
rhand -21.1183 33.8839
rfingers 7.12502
rthumb 5.26014 3.96918
lclavicle 2.67365e-014 -1.51076e-014
lhumerus -74.1942 1.25727 95.2982
lradius 99.6761
lwrist 17.4168
lhand -16.8456 -7.96949
lfingers 7.12502
lthumb 9.38429 21.8016
rfemur 8.31077 2.50228 21.2863
rtibia 42.241
rfoot 11.9369 -5.19066
rtoes -17.2098
lfemur -33.2566 7.48306 -29.3967
ltibia 51.5726
lfoot -20.2421 -1.64889
ltoes -17.5082
